<svg xmlns="http://www.w3.org/2000/svg" version="1.1" xmlns:xlink="http://www.w3.org/1999/xlink" xmlns:svgjs="http://svgjs.dev/svgjs" width="2880" height="1556" preserveAspectRatio="none" viewBox="0 0 2880 1556"><g mask="url(&quot;#SvgjsMask1057&quot;)" fill="none"><rect width="2880" height="1556" x="0" y="0" fill="rgba(16, 18, 34, 1)"></rect><path d="M-171.0280133024021 83.54860564169672L61.29452122982889 228.71983722878414 206.46575281691628-3.6026973034468313-25.856781715314668-148.77392889053425z" fill="rgba(28, 83, 142, 0.4)" class="triangle-float2"></path><path d="M2202.503,1352.96C2322.384,1360.909,2458.925,1352.652,2522.958,1250.994C2589.776,1144.914,2555.523,1006.678,2486.576,901.969C2424.555,807.778,2315.273,763.07,2202.503,764.319C2092.149,765.541,1983.574,812.15,1929.124,908.144C1875.306,1003.023,1890.958,1119.942,1948.073,1212.874C2002.405,1301.279,2098.964,1346.094,2202.503,1352.96" fill="rgba(28, 83, 142, 0.4)" class="triangle-float3"></path><path d="M426.248,1968.112C560.071,1974.683,664.145,1865.012,730.211,1748.449C795.186,1633.811,826.973,1493.731,759.15,1380.755C692.838,1270.296,554.739,1232.714,426.248,1242.121C313.777,1250.355,221.495,1324.591,168.274,1424.014C118.21,1517.539,124.49,1625.083,169.937,1720.937C224.438,1835.885,299.187,1961.873,426.248,1968.112" fill="rgba(28, 83, 142, 0.4)" class="triangle-float3"></path><path d="M-73.212,1421.801C-15.446,1420.147,29.268,1376.722,57.236,1326.151C84.164,1277.461,93.541,1218.81,65.692,1170.641C37.868,1122.515,-17.641,1099.084,-73.212,1100.524C-126.247,1101.898,-172.324,1132.381,-200.182,1177.531C-229.712,1225.391,-243.21,1284.112,-217.273,1334.011C-189.475,1387.49,-133.459,1423.526,-73.212,1421.801" fill="rgba(28, 83, 142, 0.4)" class="triangle-float3"></path><path d="M2584.308,1940.2C2742.263,1948.849,2886.096,1844.513,2958.862,1704.05C3026.448,1573.586,2998.38,1418.187,2918.674,1294.754C2845.912,1182.074,2718.439,1124.365,2584.308,1124.013C2449.488,1123.659,2313.716,1175.899,2246.888,1292.991C2180.546,1409.231,2212.77,1547.906,2274.643,1666.586C2342.892,1797.495,2436.897,1932.129,2584.308,1940.2" fill="rgba(28, 83, 142, 0.4)" class="triangle-float3"></path><path d="M519.027,1105.582C577.959,1105.545,616.674,1050.555,644.66,998.692C670.866,950.128,688.001,892.314,659.663,844.962C631.878,798.533,573.134,788.393,519.027,788.76C465.742,789.121,409.046,801.14,381.654,846.846C353.658,893.56,367.579,950.75,393.118,998.852C420.771,1050.936,460.057,1105.619,519.027,1105.582" fill="rgba(28, 83, 142, 0.4)" class="triangle-float3"></path></g><defs><mask id="SvgjsMask1057"><rect width="2880" height="1556" fill="#ffffff"></rect></mask><style>
                @keyframes float1 {
                    0%{transform: translate(0, 0)}
                    50%{transform: translate(-10px, 0)}
                    100%{transform: translate(0, 0)}
                }

                .triangle-float1 {
                    animation: float1 5s infinite;
                }

                @keyframes float2 {
                    0%{transform: translate(0, 0)}
                    50%{transform: translate(-5px, -5px)}
                    100%{transform: translate(0, 0)}
                }

                .triangle-float2 {
                    animation: float2 4s infinite;
                }

                @keyframes float3 {
                    0%{transform: translate(0, 0)}
                    50%{transform: translate(0, -10px)}
                    100%{transform: translate(0, 0)}
                }

                .triangle-float3 {
                    animation: float3 6s infinite;
                }
            </style></defs></svg>